<svg xmlns="http://www.w3.org/2000/svg" xmlns:xlink="http://www.w3.org/1999/xlink" width="500" zoomAndPan="magnify" viewBox="0 0 375 374.999991" height="500" preserveAspectRatio="xMidYMid meet" version="1.0"><defs><g/><clipPath id="90fdf3ec8e"><path d="M 87 133.660156 L 144.933594 133.660156 L 144.933594 221.410156 L 87 221.410156 Z M 87 133.660156 " clip-rule="nonzero"/></clipPath><clipPath id="e34e8a1736"><path d="M 49.683594 154 L 122 154 L 122 221.410156 L 49.683594 221.410156 Z M 49.683594 154 " clip-rule="nonzero"/></clipPath></defs><g clip-path="url(#90fdf3ec8e)"><path fill="#ffbb84" d="M 119.792969 202.757812 L 87.929688 201.773438 L 145.210938 221.300781 L 97.445312 133.679688 L 89.890625 147.53125 L 97.445312 161.480469 L 119.792969 202.757812 " fill-opacity="1" fill-rule="nonzero"/></g><g clip-path="url(#e34e8a1736)"><path fill="#ff7200" d="M 71.628906 208.84375 L 86.792969 181.019531 L 93.726562 168.300781 L 86.171875 154.359375 L 49.679688 221.300781 L 121.074219 221.300781 L 71.628906 208.84375 " fill-opacity="1" fill-rule="nonzero"/></g><path fill="#ffbbe5" d="M 93.726562 168.300781 L 86.792969 181.019531 L 95.804688 197.667969 L 109.875 198.101562 L 93.726562 168.300781 " fill-opacity="1" fill-rule="nonzero"/><path stroke-linecap="butt" transform="matrix(0.75, 0, 0, 0.75, 105.688759, 154.137777)" fill="none" stroke-linejoin="miter" d="M 68.680617 31.363174 C 68.852492 31.790258 68.706659 31.998591 68.232701 31.998591 L 64.102492 31.998591 C 63.779575 31.998591 63.571242 31.852758 63.477492 31.555883 L 61.987909 27.123591 L 52.243116 27.123591 L 50.753533 31.555883 C 50.654574 31.852758 50.441033 31.998591 50.118116 31.998591 L 45.993116 31.998591 C 45.519157 31.998591 45.368116 31.790258 45.539991 31.363174 L 54.581658 6.404839 C 54.706658 6.107964 54.914991 5.962131 55.211866 5.962131 L 58.935825 5.962131 C 59.305617 5.962131 59.539992 6.107964 59.644158 6.404839 Z M 53.612908 23.035049 L 60.6077 23.035049 L 57.1077 12.581923 Z M 100.404578 5.962131 C 100.779578 5.962131 100.967078 6.144423 100.967078 6.514214 L 100.967078 31.446508 C 100.967078 31.816299 100.779578 31.998591 100.404578 31.998591 L 95.826452 31.998591 C 95.529577 31.998591 95.305619 31.873591 95.164994 31.628799 L 85.154577 13.951715 L 85.154577 31.446508 C 85.154577 31.816299 84.967077 31.998591 84.592077 31.998591 L 80.61291 31.998591 C 80.243118 31.998591 80.060826 31.816299 80.060826 31.446508 L 80.060826 6.514214 C 80.060826 6.144423 80.243118 5.962131 80.61291 5.962131 L 85.191035 5.962131 C 85.48791 5.962131 85.711868 6.087131 85.86291 6.331923 L 95.873327 23.99859 L 95.873327 6.514214 C 95.873327 6.144423 96.055619 5.962131 96.425411 5.962131 Z M 118.435829 13.066298 C 118.435829 13.831923 118.727496 14.446507 119.310829 14.910048 C 119.899371 15.368382 120.654579 15.769423 121.581662 16.113173 C 122.513954 16.462132 123.498329 16.831923 124.539996 17.232965 C 125.581663 17.62359 126.566038 18.12359 127.493121 18.722548 C 128.425413 19.316298 129.180621 20.09234 129.763955 21.045465 C 130.352496 21.99859 130.644163 23.227757 130.644163 24.743382 C 130.644163 26.384007 130.201455 27.785049 129.316038 28.941299 C 128.441038 30.092341 127.310829 30.962133 125.930621 31.555883 C 124.555621 32.149633 123.112913 32.446508 121.597287 32.446508 C 120.331662 32.446508 119.133746 32.259008 117.993121 31.889216 C 116.852495 31.514216 115.83687 31.019424 114.941037 30.399633 C 114.050412 29.779841 113.347287 29.107966 112.826454 28.394424 C 112.623329 28.123591 112.638954 27.863174 112.862912 27.613174 L 115.097287 25.186091 C 115.342079 24.889216 115.61812 24.878799 115.914995 25.149632 C 116.80562 25.920466 117.706662 26.535049 118.618121 26.993382 C 119.539996 27.456924 120.571246 27.686091 121.717079 27.686091 C 122.805621 27.686091 123.737913 27.410049 124.503538 26.852757 C 125.274371 26.295466 125.659788 25.555882 125.659788 24.634007 C 125.659788 23.863174 125.362913 23.232965 124.779579 22.738174 C 124.196246 22.238174 123.441038 21.805882 122.508746 21.43609 C 121.581662 21.06109 120.602496 20.670465 119.571246 20.264215 C 118.545204 19.852757 117.560829 19.352757 116.628537 18.759007 C 115.706662 18.165257 114.946245 17.399632 114.357704 16.46734 C 113.779579 15.535048 113.487912 14.363173 113.487912 12.956923 C 113.487912 11.441298 113.86812 10.139215 114.623329 9.050673 C 115.378537 7.962131 116.378537 7.123589 117.618121 6.545464 C 118.862912 5.956923 120.185829 5.660048 121.597287 5.660048 C 123.217079 5.660048 124.685829 5.977756 126.013954 6.613173 C 127.336871 7.243381 128.508746 8.081923 129.52958 9.123589 C 129.774371 9.368381 129.789996 9.628798 129.56083 9.90484 L 127.519163 12.394423 C 127.295204 12.696506 127.034788 12.732965 126.737913 12.509006 C 125.816038 11.790256 124.993121 11.264215 124.258746 10.930881 C 123.524371 10.59234 122.691038 10.420465 121.753537 10.420465 C 120.711871 10.420465 119.899371 10.670465 119.310829 11.165256 C 118.727496 11.660048 118.435829 12.295465 118.435829 13.066298 Z M 161.774373 5.962131 C 162.144165 5.962131 162.326457 6.144423 162.326457 6.514214 L 162.326457 31.446508 C 162.326457 31.816299 162.144165 31.998591 161.774373 31.998591 L 157.831665 31.998591 C 157.456665 31.998591 157.269165 31.816299 157.269165 31.446508 L 157.269165 21.43609 L 147.451456 21.43609 L 147.451456 31.446508 C 147.451456 31.816299 147.263956 31.998591 146.888956 31.998591 L 142.909789 31.998591 C 142.539997 31.998591 142.357705 31.816299 142.357705 31.446508 L 142.357705 6.514214 C 142.357705 6.144423 142.539997 5.962131 142.909789 5.962131 L 146.888956 5.962131 C 147.263956 5.962131 147.451456 6.144423 147.451456 6.514214 L 147.451456 16.930882 L 157.269165 16.930882 L 157.269165 6.514214 C 157.269165 6.144423 157.456665 5.962131 157.831665 5.962131 Z M 175.008749 6.514214 C 175.008749 6.144423 175.196249 5.962131 175.566041 5.962131 L 179.54 5.962131 C 179.920208 5.962131 180.107708 6.144423 180.107708 6.514214 L 180.107708 31.446508 C 180.107708 31.816299 179.920208 31.998591 179.54 31.998591 L 175.566041 31.998591 C 175.196249 31.998591 175.008749 31.816299 175.008749 31.446508 Z M 213.430627 31.326716 C 213.560835 31.503799 213.592085 31.660049 213.524377 31.800674 C 213.461877 31.930883 213.321252 31.998591 213.097293 31.998591 L 208.373335 31.998591 C 208.07646 31.998591 207.852501 31.889216 207.70146 31.665258 L 199.925418 20.946507 L 197.847292 23.37359 L 197.847292 31.446508 C 197.847292 31.816299 197.659792 31.998591 197.284792 31.998591 L 193.305625 31.998591 C 192.935834 31.998591 192.753542 31.816299 192.753542 31.446508 L 192.753542 6.514214 C 192.753542 6.144423 192.935834 5.962131 193.305625 5.962131 L 197.284792 5.962131 C 197.659792 5.962131 197.847292 6.144423 197.847292 6.514214 L 197.847292 16.597548 L 206.550418 6.259006 C 206.722293 6.061089 206.946251 5.962131 207.222293 5.962131 L 212.17021 5.962131 C 212.42021 5.962131 212.566043 6.029839 212.612918 6.170464 C 212.665002 6.305881 212.612918 6.456923 212.472293 6.634006 L 203.316043 17.087132 Z M 246.758754 31.363174 C 246.930629 31.790258 246.784796 31.998591 246.310837 31.998591 L 242.180629 31.998591 C 241.857712 31.998591 241.649379 31.852758 241.55042 31.555883 L 240.060837 27.123591 L 230.316045 27.123591 L 228.826461 31.555883 C 228.732711 31.852758 228.519169 31.998591 228.191044 31.998591 L 224.071253 31.998591 C 223.597294 31.998591 223.446252 31.790258 223.612919 31.363174 L 232.659795 6.404839 C 232.784795 6.107964 232.993128 5.962131 233.290003 5.962131 L 237.013962 5.962131 C 237.378545 5.962131 237.618128 6.107964 237.722295 6.404839 Z M 231.691045 23.035049 L 238.680628 23.035049 L 235.185837 12.581923 Z M 231.691045 23.035049 " stroke="#803900" stroke-width="2.79051" stroke-opacity="1" stroke-miterlimit="4"/><g fill="#ff7200" fill-opacity="1"><g transform="translate(138.841101, 178.137776)"><g><path d="M 18.359375 -0.46875 C 18.492188 -0.15625 18.382812 0 18.03125 0 L 14.9375 0 C 14.6875 0 14.523438 -0.109375 14.453125 -0.328125 L 13.34375 -3.65625 L 6.03125 -3.65625 L 4.90625 -0.328125 C 4.832031 -0.109375 4.675781 0 4.4375 0 L 1.34375 0 C 0.988281 0 0.875 -0.15625 1 -0.46875 L 7.78125 -19.203125 C 7.875 -19.421875 8.035156 -19.53125 8.265625 -19.53125 L 11.046875 -19.53125 C 11.328125 -19.53125 11.503906 -19.421875 11.578125 -19.203125 Z M 7.0625 -6.71875 L 12.3125 -6.71875 L 9.6875 -14.5625 Z M 7.0625 -6.71875 "/></g></g></g><g fill="#ff7200" fill-opacity="1"><g transform="translate(163.778256, 178.137776)"><g><path d="M 17.21875 -19.53125 C 17.5 -19.53125 17.640625 -19.390625 17.640625 -19.109375 L 17.640625 -0.421875 C 17.640625 -0.140625 17.5 0 17.21875 0 L 13.78125 0 C 13.5625 0 13.394531 -0.09375 13.28125 -0.28125 L 5.78125 -13.53125 L 5.78125 -0.421875 C 5.78125 -0.140625 5.640625 0 5.359375 0 L 2.375 0 C 2.09375 0 1.953125 -0.140625 1.953125 -0.421875 L 1.953125 -19.109375 C 1.953125 -19.390625 2.09375 -19.53125 2.375 -19.53125 L 5.796875 -19.53125 C 6.023438 -19.53125 6.195312 -19.4375 6.3125 -19.25 L 13.8125 -6 L 13.8125 -19.109375 C 13.8125 -19.390625 13.953125 -19.53125 14.234375 -19.53125 Z M 17.21875 -19.53125 "/></g></g></g><g fill="#ff7200" fill-opacity="1"><g transform="translate(188.938536, 178.137776)"><g><path d="M 5.578125 -14.203125 C 5.578125 -13.628906 5.796875 -13.171875 6.234375 -12.828125 C 6.671875 -12.484375 7.238281 -12.179688 7.9375 -11.921875 C 8.632812 -11.660156 9.375 -11.378906 10.15625 -11.078125 C 10.9375 -10.773438 11.675781 -10.398438 12.375 -9.953125 C 13.070312 -9.515625 13.640625 -8.9375 14.078125 -8.21875 C 14.515625 -7.5 14.734375 -6.570312 14.734375 -5.4375 C 14.734375 -4.207031 14.398438 -3.160156 13.734375 -2.296875 C 13.078125 -1.429688 12.234375 -0.773438 11.203125 -0.328125 C 10.171875 0.109375 9.085938 0.328125 7.953125 0.328125 C 7.003906 0.328125 6.101562 0.191406 5.25 -0.078125 C 4.394531 -0.359375 3.628906 -0.726562 2.953125 -1.1875 C 2.285156 -1.65625 1.757812 -2.160156 1.375 -2.703125 C 1.21875 -2.910156 1.222656 -3.109375 1.390625 -3.296875 L 3.0625 -5.109375 C 3.25 -5.328125 3.457031 -5.335938 3.6875 -5.140625 C 4.351562 -4.554688 5.03125 -4.09375 5.71875 -3.75 C 6.40625 -3.40625 7.175781 -3.234375 8.03125 -3.234375 C 8.851562 -3.234375 9.550781 -3.441406 10.125 -3.859375 C 10.707031 -4.285156 11 -4.84375 11 -5.53125 C 11 -6.101562 10.78125 -6.570312 10.34375 -6.9375 C 9.90625 -7.3125 9.335938 -7.640625 8.640625 -7.921875 C 7.941406 -8.203125 7.207031 -8.492188 6.4375 -8.796875 C 5.664062 -9.109375 4.929688 -9.488281 4.234375 -9.9375 C 3.535156 -10.382812 2.96875 -10.957031 2.53125 -11.65625 C 2.09375 -12.351562 1.875 -13.226562 1.875 -14.28125 C 1.875 -15.414062 2.15625 -16.394531 2.71875 -17.21875 C 3.289062 -18.039062 4.039062 -18.664062 4.96875 -19.09375 C 5.894531 -19.53125 6.890625 -19.75 7.953125 -19.75 C 9.160156 -19.75 10.257812 -19.507812 11.25 -19.03125 C 12.25 -18.5625 13.128906 -17.9375 13.890625 -17.15625 C 14.078125 -16.976562 14.085938 -16.785156 13.921875 -16.578125 L 12.390625 -14.703125 C 12.222656 -14.484375 12.023438 -14.457031 11.796875 -14.625 C 11.109375 -15.164062 10.488281 -15.5625 9.9375 -15.8125 C 9.394531 -16.0625 8.769531 -16.1875 8.0625 -16.1875 C 7.28125 -16.1875 6.671875 -16 6.234375 -15.625 C 5.796875 -15.25 5.578125 -14.773438 5.578125 -14.203125 Z M 5.578125 -14.203125 "/></g></g></g><g fill="#ff7200" fill-opacity="1"><g transform="translate(210.50092, 178.137776)"><g><path d="M 16.515625 -19.53125 C 16.796875 -19.53125 16.9375 -19.390625 16.9375 -19.109375 L 16.9375 -0.421875 C 16.9375 -0.140625 16.796875 0 16.515625 0 L 13.5625 0 C 13.28125 0 13.140625 -0.140625 13.140625 -0.421875 L 13.140625 -7.921875 L 5.78125 -7.921875 L 5.78125 -0.421875 C 5.78125 -0.140625 5.640625 0 5.359375 0 L 2.375 0 C 2.09375 0 1.953125 -0.140625 1.953125 -0.421875 L 1.953125 -19.109375 C 1.953125 -19.390625 2.09375 -19.53125 2.375 -19.53125 L 5.359375 -19.53125 C 5.640625 -19.53125 5.78125 -19.390625 5.78125 -19.109375 L 5.78125 -11.296875 L 13.140625 -11.296875 L 13.140625 -19.109375 C 13.140625 -19.390625 13.28125 -19.53125 13.5625 -19.53125 Z M 16.515625 -19.53125 "/></g></g></g><g fill="#ff7200" fill-opacity="1"><g transform="translate(234.991824, 178.137776)"><g><path d="M 1.953125 -19.109375 C 1.953125 -19.390625 2.09375 -19.53125 2.375 -19.53125 L 5.359375 -19.53125 C 5.640625 -19.53125 5.78125 -19.390625 5.78125 -19.109375 L 5.78125 -0.421875 C 5.78125 -0.140625 5.640625 0 5.359375 0 L 2.375 0 C 2.09375 0 1.953125 -0.140625 1.953125 -0.421875 Z M 1.953125 -19.109375 "/></g></g></g><g fill="#ff7200" fill-opacity="1"><g transform="translate(248.298567, 178.137776)"><g><path d="M 17.46875 -0.5 C 17.5625 -0.375 17.582031 -0.257812 17.53125 -0.15625 C 17.488281 -0.0507812 17.382812 0 17.21875 0 L 13.671875 0 C 13.453125 0 13.285156 -0.0820312 13.171875 -0.25 L 7.34375 -8.28125 L 5.78125 -6.46875 L 5.78125 -0.421875 C 5.78125 -0.140625 5.640625 0 5.359375 0 L 2.375 0 C 2.09375 0 1.953125 -0.140625 1.953125 -0.421875 L 1.953125 -19.109375 C 1.953125 -19.390625 2.09375 -19.53125 2.375 -19.53125 L 5.359375 -19.53125 C 5.640625 -19.53125 5.78125 -19.390625 5.78125 -19.109375 L 5.78125 -11.546875 L 12.3125 -19.3125 C 12.4375 -19.457031 12.601562 -19.53125 12.8125 -19.53125 L 16.515625 -19.53125 C 16.703125 -19.53125 16.8125 -19.476562 16.84375 -19.375 C 16.882812 -19.28125 16.851562 -19.164062 16.75 -19.03125 L 9.875 -11.1875 Z M 17.46875 -0.5 "/></g></g></g><g fill="#ff7200" fill-opacity="1"><g transform="translate(272.398999, 178.137776)"><g><path d="M 18.359375 -0.46875 C 18.492188 -0.15625 18.382812 0 18.03125 0 L 14.9375 0 C 14.6875 0 14.523438 -0.109375 14.453125 -0.328125 L 13.34375 -3.65625 L 6.03125 -3.65625 L 4.90625 -0.328125 C 4.832031 -0.109375 4.675781 0 4.4375 0 L 1.34375 0 C 0.988281 0 0.875 -0.15625 1 -0.46875 L 7.78125 -19.203125 C 7.875 -19.421875 8.035156 -19.53125 8.265625 -19.53125 L 11.046875 -19.53125 C 11.328125 -19.53125 11.503906 -19.421875 11.578125 -19.203125 Z M 7.0625 -6.71875 L 12.3125 -6.71875 L 9.6875 -14.5625 Z M 7.0625 -6.71875 "/></g></g></g><path stroke-linecap="butt" transform="matrix(0.75, 0, 0, 0.75, 165.416581, 182.080476)" fill="none" stroke-linejoin="miter" d="M 26.100811 9.158324 L 20.356019 9.158324 L 20.356019 7.663532 L 33.569561 7.663532 L 33.569561 9.158324 L 27.824769 9.158324 L 27.824769 24.002075 L 26.100811 24.002075 Z M 51.048729 18.351033 L 51.048729 24.002075 L 49.340395 24.002075 L 49.340395 18.351033 L 42.809145 7.663532 L 44.652895 7.663532 L 50.257062 16.835408 L 55.856021 7.663532 L 57.579979 7.663532 Z M 79.632064 19.637492 L 70.533105 19.637492 L 68.569563 24.002075 L 66.772688 24.002075 L 74.241439 7.663532 L 75.944564 7.663532 L 83.413314 24.002075 L 81.590398 24.002075 Z M 79.001856 18.231241 L 75.07998 9.460408 L 71.158105 18.231241 Z M 106.746649 15.8302 L 108.402899 15.8302 L 108.402899 22.064575 C 107.642483 22.731242 106.736233 23.246867 105.699774 23.606242 C 104.658107 23.965617 103.559149 24.1427 102.402899 24.1427 C 100.772691 24.1427 99.298732 23.783325 97.99144 23.069783 C 96.684149 22.351033 95.658107 21.36145 94.913315 20.090617 C 94.168523 18.819783 93.793523 17.403116 93.793523 15.8302 C 93.793523 14.257283 94.168523 12.840616 94.913315 11.569783 C 95.658107 10.304158 96.684149 9.309366 97.99144 8.595824 C 99.298732 7.877074 100.777899 7.522907 102.434149 7.522907 C 103.673732 7.522907 104.814357 7.720824 105.856024 8.116657 C 106.902899 8.512491 107.783108 9.101033 108.496649 9.882283 L 107.423733 10.976033 C 106.132066 9.699991 104.491441 9.064574 102.501857 9.064574 C 101.178941 9.064574 99.986232 9.356241 98.918524 9.944783 C 97.850815 10.522908 97.012274 11.335408 96.402899 12.371866 C 95.798732 13.403116 95.496648 14.554158 95.496648 15.8302 C 95.496648 17.106241 95.798732 18.257283 96.402899 19.288533 C 97.012274 20.314575 97.845607 21.121867 98.902899 21.715617 C 99.965399 22.304158 101.158107 22.595825 102.475816 22.595825 C 104.158107 22.595825 105.579982 22.179158 106.746649 21.340617 Z M 122.4029 7.663532 L 124.126859 7.663532 L 124.126859 24.002075 L 122.4029 24.002075 Z M 122.4029 7.663532 " stroke="#803c05" stroke-width="1.750943" stroke-opacity="1" stroke-miterlimit="4"/><g fill="#ffbb84" fill-opacity="1"><g transform="translate(180.615799, 200.080475)"><g><path d="M 4.375 -11.125 L 0.0625 -11.125 L 0.0625 -12.25 L 9.96875 -12.25 L 9.96875 -11.125 L 5.671875 -11.125 L 5.671875 0 L 4.375 0 Z M 4.375 -11.125 "/></g></g></g><g fill="#ffbb84" fill-opacity="1"><g transform="translate(197.504711, 200.080475)"><g><path d="M 6.1875 -4.234375 L 6.1875 0 L 4.921875 0 L 4.921875 -4.234375 L 0.015625 -12.25 L 1.40625 -12.25 L 5.59375 -5.375 L 9.796875 -12.25 L 11.09375 -12.25 Z M 6.1875 -4.234375 "/></g></g></g><g fill="#ffbb84" fill-opacity="1"><g transform="translate(215.460887, 200.080475)"><g><path d="M 9.671875 -3.265625 L 2.859375 -3.265625 L 1.375 0 L 0.03125 0 L 5.640625 -12.25 L 6.90625 -12.25 L 12.515625 0 L 11.140625 0 Z M 9.203125 -4.328125 L 6.265625 -10.90625 L 3.328125 -4.328125 Z M 9.203125 -4.328125 "/></g></g></g><g fill="#ffbb84" fill-opacity="1"><g transform="translate(234.851738, 200.080475)"><g><path d="M 10.625 -6.125 L 11.859375 -6.125 L 11.859375 -1.453125 C 11.285156 -0.953125 10.609375 -0.566406 9.828125 -0.296875 C 9.046875 -0.0234375 8.226562 0.109375 7.375 0.109375 C 6.144531 0.109375 5.039062 -0.15625 4.0625 -0.6875 C 3.082031 -1.226562 2.3125 -1.972656 1.75 -2.921875 C 1.1875 -3.878906 0.90625 -4.945312 0.90625 -6.125 C 0.90625 -7.300781 1.1875 -8.363281 1.75 -9.3125 C 2.3125 -10.269531 3.082031 -11.015625 4.0625 -11.546875 C 5.039062 -12.085938 6.148438 -12.359375 7.390625 -12.359375 C 8.316406 -12.359375 9.171875 -12.207031 9.953125 -11.90625 C 10.734375 -11.613281 11.394531 -11.175781 11.9375 -10.59375 L 11.125 -9.765625 C 10.15625 -10.722656 8.925781 -11.203125 7.4375 -11.203125 C 6.445312 -11.203125 5.550781 -10.984375 4.75 -10.546875 C 3.945312 -10.109375 3.316406 -9.5 2.859375 -8.71875 C 2.410156 -7.945312 2.1875 -7.082031 2.1875 -6.125 C 2.1875 -5.164062 2.410156 -4.300781 2.859375 -3.53125 C 3.316406 -2.757812 3.941406 -2.148438 4.734375 -1.703125 C 5.535156 -1.265625 6.429688 -1.046875 7.421875 -1.046875 C 8.679688 -1.046875 9.75 -1.363281 10.625 -2 Z M 10.625 -6.125 "/></g></g></g><g fill="#ffbb84" fill-opacity="1"><g transform="translate(255.222368, 200.080475)"><g><path d="M 2 -12.25 L 3.296875 -12.25 L 3.296875 0 L 2 0 Z M 2 -12.25 "/></g></g></g></svg>